<?xml version="1.0" encoding="UTF-8" standalone="no"?>
<svg
   xmlns:dc="http://purl.org/dc/elements/1.1/"
   xmlns:cc="http://creativecommons.org/ns#"
   xmlns:rdf="http://www.w3.org/1999/02/22-rdf-syntax-ns#"
   xmlns:svg="http://www.w3.org/2000/svg"
   xmlns="http://www.w3.org/2000/svg"
   xmlns:xlink="http://www.w3.org/1999/xlink"
   xmlns:sodipodi="http://sodipodi.sourceforge.net/DTD/sodipodi-0.dtd"
   xmlns:inkscape="http://www.inkscape.org/namespaces/inkscape"
   sodipodi:docname="thedesk.svg"
   inkscape:version="1.0 (4035a4fb49, 2020-05-01)"
   id="svg20249"
   version="1.1"
   viewBox="0 0 8.4666665 8.4666669"
   height="32"
   width="32">
  <defs
     id="defs20243">
    <linearGradient
       gradientTransform="matrix(0.26458333,0,0,0.26458333,75.629418,277.46165)"
       gradientUnits="userSpaceOnUse"
       y2="-3.5959179"
       x2="27.313709"
       y1="35.595917"
       x1="4.6862917"
       id="linearGradient822-63"
       xlink:href="#linearGradient9085"
       inkscape:collect="always" />
    <linearGradient
       inkscape:collect="always"
       id="linearGradient9085">
      <stop
         style="stop-color:#006401;stop-opacity:1"
         offset="0"
         id="stop9081" />
      <stop
         style="stop-color:#00c809;stop-opacity:1"
         offset="1"
         id="stop9083" />
    </linearGradient>
    <linearGradient
       gradientTransform="matrix(0.26458333,0,0,0.26458333,75.629422,277.46166)"
       gradientUnits="userSpaceOnUse"
       y2="-3.5959179"
       x2="27.313709"
       y1="35.595917"
       x1="4.6862917"
       id="linearGradient822-63-3"
       xlink:href="#linearGradient9085"
       inkscape:collect="always" />
  </defs>
  <sodipodi:namedview
     inkscape:document-rotation="0"
     inkscape:window-maximized="1"
     inkscape:window-y="304"
     inkscape:window-x="1920"
     inkscape:window-height="742"
     inkscape:window-width="1280"
     units="px"
     showgrid="true"
     inkscape:current-layer="layer1"
     inkscape:document-units="mm"
     inkscape:cy="21.866447"
     inkscape:cx="19.961068"
     inkscape:zoom="2.8"
     inkscape:pageshadow="2"
     inkscape:pageopacity="0.0"
     borderopacity="1.0"
     bordercolor="#666666"
     pagecolor="#ffffff"
     id="base">
    <inkscape:grid
       enabled="true"
       empspacing="4"
       id="grid20794"
       type="xygrid" />
    <inkscape:grid
       enabled="true"
       dotted="true"
       originx="0.13229167"
       originy="0.13229167"
       empspacing="1"
       id="grid20796"
       type="xygrid" />
  </sodipodi:namedview>
  <metadata
     id="metadata20246">
    <rdf:RDF>
      <cc:Work
         rdf:about="">
        <dc:format>image/svg+xml</dc:format>
        <dc:type
           rdf:resource="http://purl.org/dc/dcmitype/StillImage" />
        <dc:title></dc:title>
      </cc:Work>
    </rdf:RDF>
  </metadata>
  <g
     transform="translate(0,-288.53332)"
     id="layer1"
     inkscape:groupmode="layer"
     inkscape:label="Layer 1">
    <circle
       transform="rotate(15)"
       inkscape:export-ydpi="2165.5593"
       inkscape:export-xdpi="2165.5593"
       inkscape:export-filename="/home/victor/newcontemporary.png"
       r="4.2333331"
       cy="281.69485"
       cx="79.862694"
       id="path814-5-6"
       style="opacity:1;fill:url(#linearGradient822-63-3);fill-opacity:1;stroke:none;stroke-width:0.26458332;stroke-linecap:round;stroke-linejoin:round;stroke-miterlimit:4;stroke-dasharray:none;stroke-dashoffset:0;stroke-opacity:1;paint-order:normal" />
    <path
       inkscape:export-ydpi="2165.5593"
       inkscape:export-xdpi="2165.5593"
       inkscape:export-filename="/home/victor/newcontemporary.png"
       inkscape:connector-curvature="0"
       id="rect824-9-2"
       d="m 4.5072493,291.74435 c -0.5663317,-0.15174 -1.1444398,0.18203 -1.296167,0.74835 l -1.0594402,3.95383 a 4.2333333,4.2333333 0 0 0 0.9860262,0.40916 4.2333333,4.2333333 0 0 0 5.184762,-2.99339 4.2333333,4.2333333 0 0 0 0.1406317,-1.05798 z"
       style="opacity:1;fill:#000000;fill-opacity:1;stroke:none;stroke-width:0.36035824;stroke-linecap:round;stroke-linejoin:round;stroke-miterlimit:4;stroke-dasharray:none;stroke-dashoffset:0;stroke-opacity:1;paint-order:normal" />
    <path
       inkscape:connector-curvature="0"
       id="rect821"
       d="m 6.4988003,293.33836 c -0.040897,-0.006 -0.083887,-0.003 -0.1263703,0.008 -0.1699267,0.0456 -0.2700535,0.21879 -0.224525,0.38869 l 0.1646726,0.61336 0.079137,0.29566 a 0.31755246,0.31755246 0 0 0 0.00282,0.0115 c 0.046357,0.17302 -0.050992,0.34249 -0.2240259,0.38883 a 0.31759937,0.31759937 0 0 0 -4.991e-4,-1.3e-4 L 5.9238791,294.1243 c -0.1365824,-0.50975 -0.6568554,-0.81031 -1.1665947,-0.67371 -0.5097379,0.13657 -0.8102911,0.65684 -0.6737088,1.16659 l 0.6298186,2.35154 a 4.2333333,4.2333333 0 0 0 1.8008019,-0.64097 l -0.179518,-0.66976 a 0.31759937,0.31759937 0 0 0 4.991e-4,1.3e-4 c 0.5045266,-0.13518 0.8083771,-0.66221 0.6732097,-1.16673 l 1.337e-4,-5e-4 -0.082586,-0.30674 -0.1641735,-0.61322 c -0.02275,-0.0849 -0.077507,-0.15258 -0.1477994,-0.19315 l -1.338e-4,5e-4 c -0.035148,-0.0203 -0.07413,-0.0343 -0.1150278,-0.0399 z m -0.9978383,0.75501 a 0.15876037,0.15876037 0 0 1 0.043818,0.0182 0.15876037,0.15876037 0 0 1 0.071854,0.0952 0.15876037,0.15876037 0 0 1 -0.111946,0.19416 0.15876037,0.15876037 0 0 1 -0.1946656,-0.11208 0.15876037,0.15876037 0 0 1 0.1125789,-0.19453 0.15876037,0.15876037 0 0 1 0.07836,-9.3e-4 z m -0.9199689,0.24675 a 0.15876037,0.15876037 0 0 1 0.043952,0.0177 0.15876037,0.15876037 0 0 1 0.071854,0.0952 0.15876037,0.15876037 0 0 1 -0.1120799,0.19466 0.15876037,0.15876037 0 0 1 -0.194532,-0.11257 0.15876037,0.15876037 0 0 1 0.1124454,-0.19404 0.15876037,0.15876037 0 0 1 0.07836,-9.4e-4 z m 0.9545596,0.41681 a 0.15877625,0.15877625 0 0 1 0.045084,0.0174 0.15877625,0.15877625 0 0 1 0.054693,0.22116 c -0.084178,0.1458 -0.2225342,0.2518 -0.3851597,0.29537 -0.1626304,0.0436 -0.3358592,0.0209 -0.4816646,-0.0633 a 0.15877625,0.15877625 0 0 1 0.035502,-0.29222 0.15877625,0.15877625 0 0 1 0.123177,0.0175 c 0.07299,0.0421 0.1595012,0.0532 0.240899,0.0314 0.081393,-0.0218 0.1503752,-0.0744 0.1925131,-0.14743 a 0.15877625,0.15877625 0 0 1 0.1749562,-0.0799 z"
       style="opacity:1;fill:#ffffff;fill-opacity:1;stroke:none;stroke-width:0.26499999;stroke-linecap:round;stroke-linejoin:round;stroke-miterlimit:4;stroke-dasharray:none;stroke-dashoffset:0;stroke-opacity:1;paint-order:normal" />
  </g>
</svg>
