<?xml version="1.0" encoding="UTF-8" standalone="no"?>
<svg
   xmlns:dc="http://purl.org/dc/elements/1.1/"
   xmlns:cc="http://creativecommons.org/ns#"
   xmlns:rdf="http://www.w3.org/1999/02/22-rdf-syntax-ns#"
   xmlns:svg="http://www.w3.org/2000/svg"
   xmlns="http://www.w3.org/2000/svg"
   xmlns:sodipodi="http://sodipodi.sourceforge.net/DTD/sodipodi-0.dtd"
   xmlns:inkscape="http://www.inkscape.org/namespaces/inkscape"
   sodipodi:docname="pen.svg"
   inkscape:version="1.0 (4035a4fb49, 2020-05-01)"
   id="svg8"
   version="1.1"
   viewBox="0 0 10.583333 26.458334"
   height="100"
   width="40">
  <defs
     id="defs2" />
  <sodipodi:namedview
     inkscape:pagecheckerboard="true"
     inkscape:window-maximized="1"
     inkscape:window-y="304"
     inkscape:window-x="1920"
     inkscape:window-height="742"
     inkscape:window-width="1280"
     units="px"
     showgrid="true"
     inkscape:document-rotation="0"
     inkscape:current-layer="layer1"
     inkscape:document-units="mm"
     inkscape:cy="48.268424"
     inkscape:cx="8.763292"
     inkscape:zoom="3.959798"
     inkscape:pageshadow="2"
     inkscape:pageopacity="0.0"
     borderopacity="1.0"
     bordercolor="#666666"
     pagecolor="#ffffff"
     id="base">
    <inkscape:grid
       empspacing="4"
       id="grid833"
       type="xygrid" />
    <inkscape:grid
       dotted="true"
       originx="0.13229167"
       originy="0.13229167"
       empspacing="1"
       id="grid835"
       type="xygrid" />
  </sodipodi:namedview>
  <metadata
     id="metadata5">
    <rdf:RDF>
      <cc:Work
         rdf:about="">
        <dc:format>image/svg+xml</dc:format>
        <dc:type
           rdf:resource="http://purl.org/dc/dcmitype/StillImage" />
        <dc:title></dc:title>
      </cc:Work>
    </rdf:RDF>
  </metadata>
  <g
     id="layer1"
     inkscape:groupmode="layer"
     inkscape:label="Lớp 1">
    <rect
       style="fill:%1;fill-opacity:1;stroke:none;stroke-width:1.5875;stroke-linecap:round;stroke-linejoin:round"
       ry="1.0583332"
       y="1.0583333"
       x="4.2333331"
       height="6.3499994"
       width="2.1166666"
       id="rect839" />
    <path
       transform="scale(0.26458333)"
       d="M 4.5 33.210938 L 4.5 100 L 35.5 100 L 35.5 34.089844 A 23.499999 23.499999 0 0 1 35.388672 34.181641 A 23.499999 23.499999 0 0 1 35.070312 34.4375 A 23.499999 23.499999 0 0 1 34.748047 34.6875 A 23.499999 23.499999 0 0 1 34.421875 34.931641 A 23.499999 23.499999 0 0 1 34.091797 35.169922 A 23.499999 23.499999 0 0 1 33.757812 35.404297 A 23.499999 23.499999 0 0 1 33.417969 35.630859 A 23.499999 23.499999 0 0 1 33.076172 35.851562 A 23.499999 23.499999 0 0 1 32.730469 36.066406 A 23.499999 23.499999 0 0 1 32.380859 36.275391 A 23.499999 23.499999 0 0 1 32.027344 36.478516 A 23.499999 23.499999 0 0 1 31.669922 36.675781 A 23.499999 23.499999 0 0 1 31.310547 36.867188 A 23.499999 23.499999 0 0 1 30.945312 37.050781 A 23.499999 23.499999 0 0 1 30.580078 37.228516 A 23.499999 23.499999 0 0 1 30.208984 37.400391 A 23.499999 23.499999 0 0 1 29.835938 37.566406 A 23.499999 23.499999 0 0 1 29.460938 37.724609 A 23.499999 23.499999 0 0 1 29.083984 37.876953 A 23.499999 23.499999 0 0 1 28.703125 38.021484 A 23.499999 23.499999 0 0 1 28.318359 38.160156 A 23.499999 23.499999 0 0 1 27.933594 38.292969 A 23.499999 23.499999 0 0 1 27.546875 38.417969 A 23.499999 23.499999 0 0 1 27.15625 38.537109 A 23.499999 23.499999 0 0 1 26.763672 38.650391 A 23.499999 23.499999 0 0 1 26.371094 38.755859 A 23.499999 23.499999 0 0 1 25.974609 38.853516 A 23.499999 23.499999 0 0 1 25.578125 38.945312 A 23.499999 23.499999 0 0 1 25.177734 39.029297 A 23.499999 23.499999 0 0 1 24.779297 39.107422 A 23.499999 23.499999 0 0 1 24.376953 39.177734 A 23.499999 23.499999 0 0 1 23.974609 39.242188 A 23.499999 23.499999 0 0 1 23.570312 39.298828 A 23.499999 23.499999 0 0 1 23.166016 39.347656 A 23.499999 23.499999 0 0 1 22.761719 39.390625 A 23.499999 23.499999 0 0 1 22.355469 39.425781 A 23.499999 23.499999 0 0 1 21.947266 39.455078 A 23.499999 23.499999 0 0 1 21.541016 39.476562 A 23.499999 23.499999 0 0 1 21.132812 39.492188 A 23.499999 23.499999 0 0 1 20.726562 39.498047 A 23.499999 23.499999 0 0 1 20.5 39.5 A 23.499999 23.499999 0 0 1 20.091797 39.496094 A 23.499999 23.499999 0 0 1 19.685547 39.486328 A 23.499999 23.499999 0 0 1 19.277344 39.46875 A 23.499999 23.499999 0 0 1 18.871094 39.443359 A 23.499999 23.499999 0 0 1 18.464844 39.412109 A 23.499999 23.499999 0 0 1 18.058594 39.373047 A 23.499999 23.499999 0 0 1 17.654297 39.326172 A 23.499999 23.499999 0 0 1 17.25 39.273438 A 23.499999 23.499999 0 0 1 16.845703 39.214844 A 23.499999 23.499999 0 0 1 16.443359 39.146484 A 23.499999 23.499999 0 0 1 16.042969 39.074219 A 23.499999 23.499999 0 0 1 15.644531 38.992188 A 23.499999 23.499999 0 0 1 15.246094 38.904297 A 23.499999 23.499999 0 0 1 14.849609 38.810547 A 23.499999 23.499999 0 0 1 14.455078 38.708984 A 23.499999 23.499999 0 0 1 14.060547 38.601562 A 23.499999 23.499999 0 0 1 13.669922 38.486328 A 23.499999 23.499999 0 0 1 13.28125 38.363281 A 23.499999 23.499999 0 0 1 12.894531 38.234375 A 23.499999 23.499999 0 0 1 12.509766 38.099609 A 23.499999 23.499999 0 0 1 12.126953 37.957031 A 23.499999 23.499999 0 0 1 11.748047 37.808594 A 23.499999 23.499999 0 0 1 11.371094 37.654297 A 23.499999 23.499999 0 0 1 10.996094 37.492188 A 23.499999 23.499999 0 0 1 10.625 37.324219 A 23.499999 23.499999 0 0 1 10.257812 37.150391 A 23.499999 23.499999 0 0 1 9.8925781 36.96875 A 23.499999 23.499999 0 0 1 9.5292969 36.78125 A 23.499999 23.499999 0 0 1 9.1699219 36.587891 A 23.499999 23.499999 0 0 1 8.8144531 36.388672 A 23.499999 23.499999 0 0 1 8.4628906 36.183594 A 23.499999 23.499999 0 0 1 8.1152344 35.970703 A 23.499999 23.499999 0 0 1 7.7714844 35.753906 A 23.499999 23.499999 0 0 1 7.4296875 35.529297 A 23.499999 23.499999 0 0 1 7.09375 35.300781 A 23.499999 23.499999 0 0 1 6.7597656 35.064453 A 23.499999 23.499999 0 0 1 6.4316406 34.824219 A 23.499999 23.499999 0 0 1 6.1074219 34.576172 A 23.499999 23.499999 0 0 1 5.7871094 34.324219 A 23.499999 23.499999 0 0 1 5.4707031 34.066406 A 23.499999 23.499999 0 0 1 5.1601562 33.802734 A 23.499999 23.499999 0 0 1 4.8535156 33.535156 A 23.499999 23.499999 0 0 1 4.5527344 33.259766 A 23.499999 23.499999 0 0 1 4.5 33.210938 z "
       style="fill:%1;fill-opacity:1;stroke:none;stroke-width:2px;stroke-linecap:butt;stroke-linejoin:miter;stroke-opacity:1"
       id="path837" />
    <path
       transform="scale(0.26458333)"
       d="M 4.5 33.210938 A 23.499999 23.499999 0 0 0 4.5527344 33.259766 A 23.499999 23.499999 0 0 0 4.8535156 33.535156 A 23.499999 23.499999 0 0 0 5.1601562 33.802734 A 23.499999 23.499999 0 0 0 5.4707031 34.066406 A 23.499999 23.499999 0 0 0 5.7871094 34.324219 A 23.499999 23.499999 0 0 0 6.1074219 34.576172 A 23.499999 23.499999 0 0 0 6.4316406 34.824219 A 23.499999 23.499999 0 0 0 6.7597656 35.064453 A 23.499999 23.499999 0 0 0 7.09375 35.300781 A 23.499999 23.499999 0 0 0 7.4296875 35.529297 A 23.499999 23.499999 0 0 0 7.7714844 35.753906 A 23.499999 23.499999 0 0 0 8.1152344 35.970703 A 23.499999 23.499999 0 0 0 8.4628906 36.183594 A 23.499999 23.499999 0 0 0 8.8144531 36.388672 A 23.499999 23.499999 0 0 0 9.1699219 36.587891 A 23.499999 23.499999 0 0 0 9.5292969 36.78125 A 23.499999 23.499999 0 0 0 9.8925781 36.96875 A 23.499999 23.499999 0 0 0 10.257812 37.150391 A 23.499999 23.499999 0 0 0 10.625 37.324219 A 23.499999 23.499999 0 0 0 10.996094 37.492188 A 23.499999 23.499999 0 0 0 11.371094 37.654297 A 23.499999 23.499999 0 0 0 11.748047 37.808594 A 23.499999 23.499999 0 0 0 12.126953 37.957031 A 23.499999 23.499999 0 0 0 12.509766 38.099609 A 23.499999 23.499999 0 0 0 12.894531 38.234375 A 23.499999 23.499999 0 0 0 13.28125 38.363281 A 23.499999 23.499999 0 0 0 13.669922 38.486328 A 23.499999 23.499999 0 0 0 14.060547 38.601562 A 23.499999 23.499999 0 0 0 14.455078 38.708984 A 23.499999 23.499999 0 0 0 14.849609 38.810547 A 23.499999 23.499999 0 0 0 15.246094 38.904297 A 23.499999 23.499999 0 0 0 15.644531 38.992188 A 23.499999 23.499999 0 0 0 16.042969 39.074219 A 23.499999 23.499999 0 0 0 16.443359 39.146484 A 23.499999 23.499999 0 0 0 16.845703 39.214844 A 23.499999 23.499999 0 0 0 17.25 39.273438 A 23.499999 23.499999 0 0 0 17.654297 39.326172 A 23.499999 23.499999 0 0 0 18.058594 39.373047 A 23.499999 23.499999 0 0 0 18.464844 39.412109 A 23.499999 23.499999 0 0 0 18.871094 39.443359 A 23.499999 23.499999 0 0 0 19.277344 39.46875 A 23.499999 23.499999 0 0 0 19.685547 39.486328 A 23.499999 23.499999 0 0 0 20.091797 39.496094 A 23.499999 23.499999 0 0 0 20.5 39.5 A 23.499999 23.499999 0 0 0 20.726562 39.498047 A 23.499999 23.499999 0 0 0 21.132812 39.492188 A 23.499999 23.499999 0 0 0 21.541016 39.476562 A 23.499999 23.499999 0 0 0 21.947266 39.455078 A 23.499999 23.499999 0 0 0 22.355469 39.425781 A 23.499999 23.499999 0 0 0 22.761719 39.390625 A 23.499999 23.499999 0 0 0 23.166016 39.347656 A 23.499999 23.499999 0 0 0 23.570312 39.298828 A 23.499999 23.499999 0 0 0 23.974609 39.242188 A 23.499999 23.499999 0 0 0 24.376953 39.177734 A 23.499999 23.499999 0 0 0 24.779297 39.107422 A 23.499999 23.499999 0 0 0 25.177734 39.029297 A 23.499999 23.499999 0 0 0 25.578125 38.945312 A 23.499999 23.499999 0 0 0 25.974609 38.853516 A 23.499999 23.499999 0 0 0 26.371094 38.755859 A 23.499999 23.499999 0 0 0 26.763672 38.650391 A 23.499999 23.499999 0 0 0 27.15625 38.537109 A 23.499999 23.499999 0 0 0 27.546875 38.417969 A 23.499999 23.499999 0 0 0 27.933594 38.292969 A 23.499999 23.499999 0 0 0 28.318359 38.160156 A 23.499999 23.499999 0 0 0 28.703125 38.021484 A 23.499999 23.499999 0 0 0 29.083984 37.876953 A 23.499999 23.499999 0 0 0 29.460938 37.724609 A 23.499999 23.499999 0 0 0 29.835938 37.566406 A 23.499999 23.499999 0 0 0 30.208984 37.400391 A 23.499999 23.499999 0 0 0 30.580078 37.228516 A 23.499999 23.499999 0 0 0 30.945312 37.050781 A 23.499999 23.499999 0 0 0 31.310547 36.867188 A 23.499999 23.499999 0 0 0 31.669922 36.675781 A 23.499999 23.499999 0 0 0 32.027344 36.478516 A 23.499999 23.499999 0 0 0 32.380859 36.275391 A 23.499999 23.499999 0 0 0 32.730469 36.066406 A 23.499999 23.499999 0 0 0 33.076172 35.851562 A 23.499999 23.499999 0 0 0 33.417969 35.630859 A 23.499999 23.499999 0 0 0 33.757812 35.404297 A 23.499999 23.499999 0 0 0 34.091797 35.169922 A 23.499999 23.499999 0 0 0 34.421875 34.931641 A 23.499999 23.499999 0 0 0 34.748047 34.6875 A 23.499999 23.499999 0 0 0 35.070312 34.4375 A 23.499999 23.499999 0 0 0 35.388672 34.181641 A 23.499999 23.499999 0 0 0 35.5 34.089844 L 35.5 32 L 24 16.5 C 21.206324 19.328975 18.556041 18.999668 16 16.5 L 4.5 32 L 4.5 33.210938 z "
       style="fill:#ffffff;fill-opacity:1;stroke:none;stroke-width:2px;stroke-linecap:butt;stroke-linejoin:miter;stroke-opacity:1"
       id="path908" />
    <path
       transform="scale(0.26458333)"
       d="M 34.001953 35.232422 L 34.001953 100.00195 L 36.998047 100.00195 L 36.998047 32.734375 A 23.499999 23.499999 0 0 1 36.908203 32.824219 A 23.499999 23.499999 0 0 1 36.613281 33.105469 A 23.499999 23.499999 0 0 1 36.314453 33.382812 A 23.499999 23.499999 0 0 1 36.009766 33.654297 A 23.499999 23.499999 0 0 1 35.701172 33.921875 A 23.499999 23.499999 0 0 1 35.388672 34.181641 A 23.499999 23.499999 0 0 1 35.070312 34.4375 A 23.499999 23.499999 0 0 1 34.748047 34.6875 A 23.499999 23.499999 0 0 1 34.421875 34.931641 A 23.499999 23.499999 0 0 1 34.091797 35.169922 A 23.499999 23.499999 0 0 1 34.001953 35.232422 z "
       style="color:#000000;font-style:normal;font-variant:normal;font-weight:normal;font-stretch:normal;font-size:medium;line-height:normal;font-family:sans-serif;font-variant-ligatures:normal;font-variant-position:normal;font-variant-caps:normal;font-variant-numeric:normal;font-variant-alternates:normal;font-variant-east-asian:normal;font-feature-settings:normal;font-variation-settings:normal;text-indent:0;text-align:start;text-decoration:none;text-decoration-line:none;text-decoration-style:solid;text-decoration-color:#000000;letter-spacing:normal;word-spacing:normal;text-transform:none;writing-mode:lr-tb;direction:ltr;text-orientation:mixed;dominant-baseline:auto;baseline-shift:baseline;text-anchor:start;white-space:normal;shape-padding:0;shape-margin:0;inline-size:0;clip-rule:nonzero;display:inline;overflow:visible;visibility:visible;opacity:1;isolation:auto;mix-blend-mode:normal;color-interpolation:sRGB;color-interpolation-filters:linearRGB;solid-color:#000000;solid-opacity:1;vector-effect:none;fill:#f4ffff;fill-opacity:1;fill-rule:nonzero;stroke:none;stroke-width:3;stroke-linecap:butt;stroke-linejoin:miter;stroke-miterlimit:4;stroke-dasharray:none;stroke-dashoffset:0;stroke-opacity:1;color-rendering:auto;image-rendering:auto;shape-rendering:auto;text-rendering:auto;enable-background:accumulate;stop-color:#000000;stop-opacity:1"
       id="path893" />
    <path
       transform="scale(0.26458333)"
       d="M 2.9960938 31.677734 L 2.9960938 100.00195 L 6.0019531 100.00195 L 6.0019531 34.494141 A 23.499999 23.499999 0 0 1 5.7871094 34.324219 A 23.499999 23.499999 0 0 1 5.4707031 34.066406 A 23.499999 23.499999 0 0 1 5.1601562 33.802734 A 23.499999 23.499999 0 0 1 4.8535156 33.535156 A 23.499999 23.499999 0 0 1 4.5527344 33.259766 A 23.499999 23.499999 0 0 1 4.2558594 32.980469 A 23.499999 23.499999 0 0 1 3.9628906 32.697266 A 23.499999 23.499999 0 0 1 3.6757812 32.408203 A 23.499999 23.499999 0 0 1 3.3945312 32.113281 A 23.499999 23.499999 0 0 1 3.1171875 31.814453 A 23.499999 23.499999 0 0 1 2.9960938 31.677734 z "
       style="color:#000000;font-style:normal;font-variant:normal;font-weight:normal;font-stretch:normal;font-size:medium;line-height:normal;font-family:sans-serif;font-variant-ligatures:normal;font-variant-position:normal;font-variant-caps:normal;font-variant-numeric:normal;font-variant-alternates:normal;font-variant-east-asian:normal;font-feature-settings:normal;font-variation-settings:normal;text-indent:0;text-align:start;text-decoration:none;text-decoration-line:none;text-decoration-style:solid;text-decoration-color:#000000;letter-spacing:normal;word-spacing:normal;text-transform:none;writing-mode:lr-tb;direction:ltr;text-orientation:mixed;dominant-baseline:auto;baseline-shift:baseline;text-anchor:start;white-space:normal;shape-padding:0;shape-margin:0;inline-size:0;clip-rule:nonzero;display:inline;overflow:visible;visibility:visible;opacity:1;isolation:auto;mix-blend-mode:normal;color-interpolation:sRGB;color-interpolation-filters:linearRGB;solid-color:#000000;solid-opacity:1;vector-effect:none;fill:#fffff6;fill-opacity:1;fill-rule:nonzero;stroke:none;stroke-width:3;stroke-linecap:butt;stroke-linejoin:miter;stroke-miterlimit:4;stroke-dasharray:none;stroke-dashoffset:0;stroke-opacity:1;color-rendering:auto;image-rendering:auto;shape-rendering:auto;text-rendering:auto;enable-background:accumulate;stop-color:#000000;stop-opacity:1"
       id="path904" />
    <path
       transform="scale(0.26458333)"
       d="M 2.9960938 31.677734 A 23.499999 23.499999 0 0 0 3.1171875 31.814453 A 23.499999 23.499999 0 0 0 3.3945312 32.113281 A 23.499999 23.499999 0 0 0 3.6757812 32.408203 A 23.499999 23.499999 0 0 0 3.9628906 32.697266 A 23.499999 23.499999 0 0 0 4.2558594 32.980469 A 23.499999 23.499999 0 0 0 4.5527344 33.259766 A 23.499999 23.499999 0 0 0 4.8535156 33.535156 A 23.499999 23.499999 0 0 0 5.1601562 33.802734 A 23.499999 23.499999 0 0 0 5.4707031 34.066406 A 23.499999 23.499999 0 0 0 5.7871094 34.324219 A 23.499999 23.499999 0 0 0 6.0019531 34.494141 L 6.0019531 32.494141 L 16.505859 18.335938 C 17.576324 19.073101 18.613671 19.959349 19.865234 19.998047 C 21.135067 20.03731 22.300378 19.101691 23.474609 18.306641 L 34.001953 32.494141 L 34.001953 35.232422 A 23.499999 23.499999 0 0 0 34.091797 35.169922 A 23.499999 23.499999 0 0 0 34.421875 34.931641 A 23.499999 23.499999 0 0 0 34.748047 34.6875 A 23.499999 23.499999 0 0 0 35.070312 34.4375 A 23.499999 23.499999 0 0 0 35.388672 34.181641 A 23.499999 23.499999 0 0 0 35.701172 33.921875 A 23.499999 23.499999 0 0 0 36.009766 33.654297 A 23.499999 23.499999 0 0 0 36.314453 33.382812 A 23.499999 23.499999 0 0 0 36.613281 33.105469 A 23.499999 23.499999 0 0 0 36.908203 32.824219 A 23.499999 23.499999 0 0 0 36.998047 32.734375 L 36.998047 31.505859 L 24.160156 14.203125 L 22.935547 15.443359 C 21.72579 16.668403 20.791922 17.025694 19.960938 17 C 19.129953 16.974306 18.169015 16.519396 17.052734 15.427734 L 15.820312 14.224609 L 2.9960938 31.505859 L 2.9960938 31.677734 z "
       style="color:#000000;font-style:normal;font-variant:normal;font-weight:normal;font-stretch:normal;font-size:medium;line-height:normal;font-family:sans-serif;font-variant-ligatures:normal;font-variant-position:normal;font-variant-caps:normal;font-variant-numeric:normal;font-variant-alternates:normal;font-variant-east-asian:normal;font-feature-settings:normal;font-variation-settings:normal;text-indent:0;text-align:start;text-decoration:none;text-decoration-line:none;text-decoration-style:solid;text-decoration-color:#000000;letter-spacing:normal;word-spacing:normal;text-transform:none;writing-mode:lr-tb;direction:ltr;text-orientation:mixed;dominant-baseline:auto;baseline-shift:baseline;text-anchor:start;white-space:normal;shape-padding:0;shape-margin:0;inline-size:0;clip-rule:nonzero;display:inline;overflow:visible;visibility:visible;opacity:1;isolation:auto;mix-blend-mode:normal;color-interpolation:sRGB;color-interpolation-filters:linearRGB;solid-color:#000000;solid-opacity:1;vector-effect:none;fill:#ffffff;fill-opacity:1;fill-rule:nonzero;stroke:none;stroke-width:3;stroke-linecap:butt;stroke-linejoin:miter;stroke-miterlimit:4;stroke-dasharray:none;stroke-dashoffset:0;stroke-opacity:1;color-rendering:auto;image-rendering:auto;shape-rendering:auto;text-rendering:auto;enable-background:accumulate;stop-color:#000000;stop-opacity:1"
       id="path902" />
  </g>
</svg>
