<?xml version="1.0" encoding="UTF-8" standalone="no"?>
<svg
   xmlns:dc="http://purl.org/dc/elements/1.1/"
   xmlns:cc="http://creativecommons.org/ns#"
   xmlns:rdf="http://www.w3.org/1999/02/22-rdf-syntax-ns#"
   xmlns:svg="http://www.w3.org/2000/svg"
   xmlns="http://www.w3.org/2000/svg"
   xmlns:xlink="http://www.w3.org/1999/xlink"
   xmlns:sodipodi="http://sodipodi.sourceforge.net/DTD/sodipodi-0.dtd"
   xmlns:inkscape="http://www.inkscape.org/namespaces/inkscape"
   inkscape:export-ydpi="9600"
   inkscape:export-xdpi="9600"
   inkscape:export-filename="/home/victor/Documents/Apps/theSlate/readme/splash.png"
   sodipodi:docname="splash.svg"
   inkscape:version="1.0 (4035a4fb49, 2020-05-01)"
   id="svg843"
   version="1.1"
   viewBox="0 0 5.2916665 2.6458334"
   height="10"
   width="20">
  <defs
     id="defs837">
    <linearGradient
       id="linearGradient1686"
       inkscape:collect="always">
      <stop
         id="stop1682"
         offset="0"
         style="stop-color:#006400;stop-opacity:1" />
      <stop
         id="stop1684"
         offset="1"
         style="stop-color:#00c800;stop-opacity:1" />
    </linearGradient>
    <linearGradient
       gradientUnits="userSpaceOnUse"
       y2="294.35416"
       x2="5.2916665"
       y1="296.99997"
       x1="0"
       id="linearGradient2317"
       xlink:href="#linearGradient9085"
       inkscape:collect="always" />
    <linearGradient
       inkscape:collect="always"
       id="linearGradient9085">
      <stop
         style="stop-color:#6464ff;stop-opacity:1"
         offset="0"
         id="stop9081" />
      <stop
         style="stop-color:#c8c8ff;stop-opacity:1"
         offset="1"
         id="stop9083" />
    </linearGradient>
    <linearGradient
       gradientUnits="userSpaceOnUse"
       y2="294.35419"
       x2="5.2916665"
       y1="296.99997"
       x1="0"
       id="linearGradient2317-3-2"
       xlink:href="#linearGradient9085"
       inkscape:collect="always"
       gradientTransform="matrix(0.10000001,0,0,0.80001203,0.26458333,58.867237)" />
    <linearGradient
       gradientUnits="userSpaceOnUse"
       y2="294.35416"
       x2="0.52916664"
       y1="296.47083"
       x1="0.52916664"
       id="linearGradient2515"
       xlink:href="#linearGradient9209"
       inkscape:collect="always" />
    <linearGradient
       inkscape:collect="always"
       id="linearGradient9209">
      <stop
         style="stop-color:#0064d9;stop-opacity:1"
         offset="0"
         id="stop9205" />
      <stop
         style="stop-color:#22c8ff;stop-opacity:1"
         offset="1"
         id="stop9207" />
    </linearGradient>
    <linearGradient
       gradientUnits="userSpaceOnUse"
       y2="294.35416"
       x2="0.52916664"
       y1="296.47083"
       x1="0.52916664"
       id="linearGradient2515-7"
       xlink:href="#linearGradient1686"
       inkscape:collect="always"
       gradientTransform="translate(0,9.5417321e-6)" />
    <linearGradient
       gradientTransform="matrix(0.01864154,0,0,0.01864154,78.174359,284.63451)"
       gradientUnits="userSpaceOnUse"
       y2="-3.5959179"
       x2="27.313709"
       y1="35.595917"
       x1="4.6862917"
       id="linearGradient822-63-3"
       xlink:href="#linearGradient9085-7"
       inkscape:collect="always" />
    <linearGradient
       inkscape:collect="always"
       id="linearGradient9085-7">
      <stop
         style="stop-color:#006401;stop-opacity:1"
         offset="0"
         id="stop9081-5" />
      <stop
         style="stop-color:#00c809;stop-opacity:1"
         offset="1"
         id="stop9083-3" />
    </linearGradient>
  </defs>
  <sodipodi:namedview
     inkscape:document-rotation="0"
     inkscape:window-maximized="1"
     inkscape:window-y="0"
     inkscape:window-x="0"
     inkscape:window-height="1046"
     inkscape:window-width="1920"
     showguides="true"
     units="px"
     showgrid="true"
     inkscape:current-layer="layer1"
     inkscape:document-units="mm"
     inkscape:cy="1.4823752"
     inkscape:cx="6.6863604"
     inkscape:zoom="31.678384"
     inkscape:pageshadow="2"
     inkscape:pageopacity="0.0"
     borderopacity="1.0"
     bordercolor="#666666"
     pagecolor="#ffffff"
     id="base">
    <inkscape:grid
       enabled="false"
       id="grid1391"
       type="xygrid" />
    <inkscape:grid
       enabled="false"
       empspacing="1"
       dotted="true"
       originx="0.13229167"
       originy="0.13229167"
       id="grid1393"
       type="xygrid" />
  </sodipodi:namedview>
  <metadata
     id="metadata840">
    <rdf:RDF>
      <cc:Work
         rdf:about="">
        <dc:format>image/svg+xml</dc:format>
        <dc:type
           rdf:resource="http://purl.org/dc/dcmitype/StillImage" />
        <dc:title></dc:title>
      </cc:Work>
    </rdf:RDF>
  </metadata>
  <g
     transform="translate(0,-294.35415)"
     id="layer1"
     inkscape:groupmode="layer"
     inkscape:label="Layer 1">
    <rect
       y="294.35416"
       x="0"
       height="2.6458333"
       width="5.2916665"
       id="rect2664-1"
       style="opacity:1;fill:#ffffff;fill-opacity:1;stroke:none;stroke-width:0.26499999;stroke-linecap:round;stroke-linejoin:round;stroke-miterlimit:4;stroke-dasharray:none;stroke-dashoffset:0;stroke-opacity:1;paint-order:normal" />
    <path
       sodipodi:nodetypes="cccccc"
       inkscape:connector-curvature="0"
       id="path2507-4"
       d="m 0.26458333,294.35415 v 2.11667 l 0.26458334,-0.26459 0.26458333,0.26459 v -2.11667 z"
       style="fill:url(#linearGradient2515-7);fill-opacity:1.0;stroke:none;stroke-width:0.26458332px;stroke-linecap:butt;stroke-linejoin:miter;stroke-opacity:1" />
    <g
       transform="matrix(1.1098678,0,0,1.1098678,-0.22764347,-32.461787)"
       id="g2383">
      <circle
         style="opacity:1;fill:url(#linearGradient822-63-3);fill-opacity:1;stroke:none;stroke-width:0.0186415;stroke-linecap:round;stroke-linejoin:round;stroke-miterlimit:4;stroke-dasharray:none;stroke-dashoffset:0;stroke-opacity:1;paint-order:normal"
         id="path814-5-6-5"
         cx="78.472618"
         cy="284.93274"
         r="0.29826465"
         inkscape:export-filename="/home/victor/newcontemporary.png"
         inkscape:export-xdpi="2165.5593"
         inkscape:export-ydpi="2165.5593"
         transform="rotate(15)" />
      <path
         style="opacity:1;fill:#000000;fill-opacity:1;stroke:none;stroke-width:0.0253894;stroke-linecap:round;stroke-linejoin:round;stroke-miterlimit:4;stroke-dasharray:none;stroke-dashoffset:0;stroke-opacity:1;paint-order:normal"
         d="m 2.0719963,295.46211 c -0.039902,-0.0102 -0.080633,0.0128 -0.091323,0.0527 l -0.074644,0.27859 a 0.29826466,0.29826466 0 0 0 0.069472,0.0288 0.29826466,0.29826466 0 0 0 0.3652987,-0.21091 0.29826466,0.29826466 0 0 0 0.00991,-0.0745 z"
         id="rect824-9-2"
         inkscape:connector-curvature="0"
         inkscape:export-filename="/home/victor/newcontemporary.png"
         inkscape:export-xdpi="2165.5593"
         inkscape:export-ydpi="2165.5593" />
      <path
         style="opacity:1;fill:#ffffff;fill-opacity:1;stroke:none;stroke-width:0.0186708;stroke-linecap:round;stroke-linejoin:round;stroke-miterlimit:4;stroke-dasharray:none;stroke-dashoffset:0;stroke-opacity:1;paint-order:normal"
         d="m 2.2123135,295.57443 c -0.00288,-4.4e-4 -0.00591,-2.2e-4 -0.00891,5.6e-4 -0.011969,0.003 -0.019027,0.0154 -0.015819,0.0274 l 0.011598,0.0431 0.00557,0.0209 a 0.02237355,0.02237355 0 0 0 1.986e-4,7.3e-4 c 0.00326,0.0128 -0.0036,0.0241 -0.015785,0.0274 a 0.02237685,0.02237685 0 0 0 -3.54e-5,0 l -0.017341,-0.0649 c -0.00963,-0.036 -0.046279,-0.0571 -0.082194,-0.0475 -0.035914,0.009 -0.057089,0.0463 -0.047467,0.0822 l 0.044374,0.16567 a 0.29826466,0.29826466 0 0 0 0.1268784,-0.0452 l -0.012647,-0.0471 a 0.02237685,0.02237685 0 0 0 3.54e-5,1e-5 c 0.035547,-0.009 0.056955,-0.0466 0.047432,-0.0822 l 9.5e-6,-4e-5 -0.00581,-0.0216 -0.011572,-0.0433 c -0.0016,-0.006 -0.00545,-0.0102 -0.01042,-0.0136 l -9.5e-6,4e-5 c -0.00248,-10e-4 -0.00522,-0.003 -0.0081,-0.003 z m -0.070304,0.0531 a 0.01118566,0.01118566 0 0 1 0.00309,0.001 0.01118566,0.01118566 0 0 1 0.00506,0.006 0.01118566,0.01118566 0 0 1 -0.00789,0.0137 0.01118566,0.01118566 0 0 1 -0.013715,-0.008 0.01118566,0.01118566 0 0 1 0.00794,-0.0137 0.01118566,0.01118566 0 0 1 0.00552,-6e-5 z m -0.064817,0.0174 a 0.01118566,0.01118566 0 0 1 0.0031,0.001 0.01118566,0.01118566 0 0 1 0.00506,0.006 0.01118566,0.01118566 0 0 1 -0.0079,0.0137 0.01118566,0.01118566 0 0 1 -0.013706,-0.008 0.01118566,0.01118566 0 0 1 0.00792,-0.0137 0.01118566,0.01118566 0 0 1 0.00552,-6e-5 z m 0.067254,0.0293 a 0.01118677,0.01118677 0 0 1 0.00317,10e-4 0.01118677,0.01118677 0 0 1 0.00385,0.0156 c -0.00594,0.0102 -0.015678,0.0178 -0.027137,0.0209 -0.011457,0.003 -0.023664,0.001 -0.033936,-0.004 a 0.01118677,0.01118677 0 0 1 0.0025,-0.0206 0.01118677,0.01118677 0 0 1 0.00868,10e-4 c 0.00515,0.003 0.011239,0.004 0.016973,0.003 0.00573,-10e-4 0.010599,-0.005 0.013564,-0.0102 a 0.01118677,0.01118677 0 0 1 0.012327,-0.006 z"
         id="rect821"
         inkscape:connector-curvature="0" />
    </g>
    <g
       style="font-style:normal;font-variant:normal;font-weight:normal;font-stretch:normal;font-size:0.438315px;line-height:1.25;font-family:Contemporary;-inkscape-font-specification:Contemporary;letter-spacing:0px;word-spacing:0px;fill:#000000;fill-opacity:1;stroke:none;stroke-width:0.0109579"
       id="text1690"
       aria-label="theDesk">
      <path
         id="path2407"
         style="stroke-width:0.0109579"
         d="m 2.5797368,295.6823 q 0,0.005 0.00394,0.008 0.00438,0.003 0.0092,0.003 h 0.016218 q 0.00482,0 0.00833,-0.004 0.00351,-0.004 0.00351,-0.008 l -0.00131,-0.17839 h 0.046023 q 0.00482,0 0.00833,-0.004 0.00351,-0.004 0.00351,-0.008 v -0.014 q 0,-0.005 -0.00351,-0.008 -0.00351,-0.004 -0.00833,-0.004 h -0.046023 v -0.0714 q 0,-0.005 -0.00351,-0.008 -0.00351,-0.004 -0.00833,-0.004 h -0.016218 q -0.00482,0 -0.00833,0.004 -0.00351,0.003 -0.00351,0.008 v 0.0714 h -0.042078 q -0.00482,0 -0.00833,0.004 -0.00351,0.003 -0.00351,0.008 v 0.014 q 0,0.005 0.00351,0.008 0.00351,0.004 0.00833,0.004 h 0.042078 z" />
      <path
         id="path2409"
         style="stroke-width:0.0109579"
         d="m 2.9281971,295.68186 q 0,0.005 -0.00351,0.008 -0.00351,0.004 -0.00833,0.004 h -0.016218 q -0.00482,0 -0.00833,-0.004 -0.00351,-0.004 -0.00351,-0.008 v -0.11571 q 0,-0.0329 -0.016218,-0.05 -0.016218,-0.0171 -0.045146,-0.0171 -0.02849,0 -0.045146,0.0171 -0.016218,0.0171 -0.016218,0.05 v 0.11571 q 0,0.005 -0.00351,0.008 -0.00351,0.004 -0.00833,0.004 h -0.016218 q -0.00482,0 -0.00833,-0.004 -0.00351,-0.004 -0.00351,-0.008 v -0.28753 q 0,-0.005 0.00351,-0.008 0.00351,-0.004 0.00833,-0.004 h 0.016218 q 0.00482,0 0.00833,0.004 0.00351,0.003 0.00351,0.008 v 0.0969 q 0.00964,-0.0127 0.026299,-0.021 0.017094,-0.009 0.04164,-0.009 0.027614,0 0.049091,0.0118 0.021478,0.0118 0.033312,0.0342 0.012273,0.0219 0.012273,0.0522 z" />
      <path
         id="path2411"
         style="stroke-width:0.0109579"
         d="m 3.0816067,295.46139 q 0.0469,0 0.074075,0.0298 0.027176,0.0298 0.027176,0.0811 v 0.0118 q 0,0.005 -0.00351,0.008 -0.00351,0.004 -0.00833,0.004 H 3.0202426 v 0.003 q 8.766e-4,0.0289 0.017533,0.0456 0.017094,0.0162 0.043832,0.0162 0.021916,0 0.03375,-0.006 0.012273,-0.006 0.021916,-0.0162 0.00351,-0.004 0.00614,-0.005 0.00307,-0.001 0.00789,-0.001 h 0.013149 q 0.00526,0 0.00877,0.004 0.00351,0.004 0.00307,0.008 -0.00175,0.0118 -0.013149,0.0245 -0.010958,0.0123 -0.031997,0.021 -0.020601,0.008 -0.04953,0.008 -0.028052,0 -0.049968,-0.0127 -0.021916,-0.0131 -0.035065,-0.0359 -0.012711,-0.0228 -0.015341,-0.0513 -8.767e-4,-0.0131 -8.767e-4,-0.0202 0,-0.007 8.767e-4,-0.0202 0.00263,-0.0272 0.015341,-0.0491 0.013149,-0.0219 0.034627,-0.0346 0.021916,-0.0127 0.050406,-0.0127 z m 0.061802,0.0977 v -0.001 q 0,-0.0267 -0.017094,-0.0425 -0.016656,-0.0162 -0.044708,-0.0162 -0.025422,0 -0.043393,0.0162 -0.017533,0.0162 -0.017971,0.0425 v 0.001 z" />
      <path
         id="path2413"
         style="stroke-width:0.0109579"
         d="m 3.4787198,295.57491 q -4.384e-4,0.0364 -0.016218,0.0636 -0.015779,0.0267 -0.043393,0.0412 -0.027614,0.014 -0.063556,0.014 h -0.103004 q -0.00482,0 -0.00833,-0.004 -0.00351,-0.004 -0.00351,-0.008 v -0.28315 q 0,-0.005 0.00351,-0.008 0.00351,-0.004 0.00833,-0.004 h 0.1003742 q 0.03638,0 0.064432,0.0145 0.02849,0.014 0.044708,0.0412 0.016218,0.0267 0.016656,0.0631 4.383e-4,0.0131 4.383e-4,0.0346 0,0.0215 -4.383e-4,0.0346 z m -0.1963652,-0.14859 v 0.22793 h 0.071007 q 0.043832,0 0.063117,-0.0228 0.019724,-0.0228 0.020601,-0.0587 4.383e-4,-0.0131 4.383e-4,-0.0324 0,-0.0193 -4.383e-4,-0.0324 -8.766e-4,-0.0355 -0.021477,-0.0583 -0.020601,-0.0232 -0.064432,-0.0232 z" />
      <path
         id="path2415"
         style="stroke-width:0.0109579"
         d="m 3.6273084,295.46139 q 0.0469,0 0.074075,0.0298 0.027176,0.0298 0.027176,0.0811 v 0.0118 q 0,0.005 -0.00351,0.008 -0.00351,0.004 -0.00833,0.004 H 3.5659443 v 0.003 q 8.766e-4,0.0289 0.017533,0.0456 0.017094,0.0162 0.043832,0.0162 0.021916,0 0.03375,-0.006 0.012273,-0.006 0.021916,-0.0162 0.00351,-0.004 0.00614,-0.005 0.00307,-0.001 0.00789,-0.001 h 0.013149 q 0.00526,0 0.00877,0.004 0.00351,0.004 0.00307,0.008 -0.00175,0.0118 -0.013149,0.0245 -0.010958,0.0123 -0.031997,0.021 -0.020601,0.008 -0.04953,0.008 -0.028052,0 -0.049968,-0.0127 -0.021916,-0.0131 -0.035065,-0.0359 -0.012711,-0.0228 -0.015341,-0.0513 -8.767e-4,-0.0131 -8.767e-4,-0.0202 0,-0.007 8.767e-4,-0.0202 0.00263,-0.0272 0.015341,-0.0491 0.013149,-0.0219 0.034627,-0.0346 0.021916,-0.0127 0.050406,-0.0127 z m 0.061802,0.0977 v -0.001 q 0,-0.0267 -0.017094,-0.0425 -0.016656,-0.0162 -0.044708,-0.0162 -0.025422,0 -0.043393,0.0162 -0.017533,0.0162 -0.017971,0.0425 v 0.001 z" />
      <path
         id="path2417"
         style="stroke-width:0.0109579"
         d="m 3.8363844,295.59244 q -0.063994,-0.0136 -0.063994,-0.0653 0,-0.018 0.00964,-0.0329 0.00964,-0.0149 0.02849,-0.0237 0.019286,-0.009 0.0469,-0.009 0.027176,0 0.0469,0.008 0.019724,0.008 0.029805,0.0197 0.01052,0.0118 0.01052,0.0228 0,0.004 -0.00351,0.008 -0.00351,0.003 -0.00833,0.003 h -0.014464 q -0.00833,0 -0.013149,-0.006 -0.013588,-0.0175 -0.047776,-0.0175 -0.020163,0 -0.032874,0.007 -0.012273,0.007 -0.012273,0.0206 0,0.011 0.00614,0.0167 0.00614,0.006 0.018409,0.009 0.012273,0.004 0.043393,0.0105 0.038572,0.008 0.054789,0.0254 0.016218,0.0171 0.016218,0.0416 0,0.018 -0.011396,0.0333 -0.010958,0.0153 -0.031997,0.025 -0.020601,0.009 -0.048215,0.009 -0.027176,0 -0.048215,-0.008 -0.020601,-0.009 -0.031997,-0.021 -0.011396,-0.0123 -0.011396,-0.0232 0,-0.004 0.00351,-0.007 0.00351,-0.004 0.00833,-0.004 h 0.015779 q 0.00394,0 0.00701,8.8e-4 0.00307,8.8e-4 0.0057,0.005 0.014464,0.0202 0.051283,0.0202 0.020601,0 0.035942,-0.008 0.015779,-0.009 0.015779,-0.0215 0,-0.0105 -0.00789,-0.0167 -0.00745,-0.007 -0.021916,-0.0105 -0.014464,-0.004 -0.045146,-0.011 z" />
      <path
         id="path2419"
         style="stroke-width:0.0109579"
         d="m 4.0432684,295.68186 q 0,0.005 -0.00351,0.008 -0.00351,0.004 -0.00833,0.004 h -0.016218 q -0.00482,0 -0.00833,-0.004 -0.00351,-0.004 -0.00351,-0.008 v -0.28753 q 0,-0.005 0.00351,-0.008 0.00351,-0.004 0.00833,-0.004 h 0.016218 q 0.00482,0 0.00833,0.004 0.00351,0.003 0.00351,0.008 v 0.14508 l 0.085471,-0.0662 q 0.00482,-0.004 0.00833,-0.005 0.00351,-0.002 0.00877,-0.002 h 0.021916 q 0.00438,0 0.00745,0.003 0.00307,0.003 0.00307,0.007 0,0.005 -0.00482,0.009 l -0.1056339,0.0824 0.1165918,0.10739 q 0.00438,0.004 0.00438,0.008 0,0.004 -0.00307,0.007 -0.00307,0.003 -0.00745,0.003 h -0.020601 q -0.0092,0 -0.017971,-0.007 l -0.096429,-0.089 z" />
    </g>
    <g
       style="font-style:normal;font-variant:normal;font-weight:normal;font-stretch:normal;font-size:0.209673px;line-height:1.25;font-family:Contemporary;-inkscape-font-specification:Contemporary;letter-spacing:0px;word-spacing:0px;fill:#000000;fill-opacity:1;stroke:none;stroke-width:0.00524186"
       id="text1694"
       aria-label="Desktop Environment">
      <path
         id="path2485"
         style="stroke-width:0.00524186"
         d="m 2.6537206,295.96549 q -2.097e-4,0.0174 -0.00776,0.0304 -0.00755,0.0128 -0.020758,0.0197 -0.013209,0.007 -0.030403,0.007 h -0.049273 q -0.00231,0 -0.00398,-0.002 -0.00168,-0.002 -0.00168,-0.004 v -0.13545 q 0,-0.002 0.00168,-0.004 0.00168,-0.002 0.00398,-0.002 h 0.048015 q 0.017403,0 0.030822,0.007 0.013629,0.007 0.021387,0.0197 0.00776,0.0128 0.00797,0.0302 2.097e-4,0.006 2.097e-4,0.0166 0,0.0103 -2.097e-4,0.0166 z m -0.093934,-0.0711 v 0.10903 h 0.033967 q 0.020967,0 0.030193,-0.0109 0.00944,-0.0109 0.00985,-0.0281 2.096e-4,-0.006 2.096e-4,-0.0155 0,-0.009 -2.096e-4,-0.0155 -4.194e-4,-0.017 -0.010274,-0.0279 -0.00985,-0.0111 -0.030822,-0.0111 z" />
      <path
         id="path2487"
         style="stroke-width:0.00524186"
         d="m 2.7247997,295.91118 q 0.022435,0 0.035435,0.0143 0.013,0.0143 0.013,0.0388 v 0.006 q 0,0.002 -0.00168,0.004 -0.00168,0.002 -0.00398,0.002 h -0.072128 v 0.001 q 4.193e-4,0.0138 0.00839,0.0218 0.00818,0.008 0.020967,0.008 0.010484,0 0.016145,-0.003 0.00587,-0.003 0.010484,-0.008 0.00168,-0.002 0.00294,-0.002 0.00147,-6.3e-4 0.00377,-6.3e-4 h 0.00629 q 0.00252,0 0.00419,0.002 0.00168,0.002 0.00147,0.004 -8.387e-4,0.006 -0.00629,0.0117 -0.00524,0.006 -0.015306,0.0101 -0.00985,0.004 -0.023693,0.004 -0.013419,0 -0.023903,-0.006 -0.010484,-0.006 -0.016774,-0.0172 -0.00608,-0.0109 -0.00734,-0.0245 -4.194e-4,-0.006 -4.194e-4,-0.01 0,-0.003 4.194e-4,-0.01 0.00126,-0.013 0.00734,-0.0235 0.00629,-0.0105 0.016564,-0.0166 0.010484,-0.006 0.024112,-0.006 z m 0.029564,0.0468 v -6.3e-4 q 0,-0.0128 -0.00818,-0.0203 -0.00797,-0.008 -0.021387,-0.008 -0.012161,0 -0.020758,0.008 -0.00839,0.008 -0.0086,0.0203 v 6.3e-4 z" />
      <path
         id="path2489"
         style="stroke-width:0.00524186"
         d="m 2.8248135,295.97387 q -0.030612,-0.006 -0.030612,-0.0312 0,-0.009 0.00461,-0.0157 0.00461,-0.007 0.013629,-0.0113 0.00923,-0.004 0.022435,-0.004 0.013,0 0.022435,0.004 0.00944,0.004 0.014258,0.009 0.00503,0.006 0.00503,0.0109 0,0.002 -0.00168,0.004 -0.00168,0.001 -0.00398,0.001 h -0.00692 q -0.00398,0 -0.00629,-0.003 -0.0065,-0.008 -0.022854,-0.008 -0.00964,0 -0.015725,0.004 -0.00587,0.004 -0.00587,0.01 0,0.005 0.00294,0.008 0.00294,0.003 0.00881,0.004 0.00587,0.002 0.020758,0.005 0.018451,0.004 0.026209,0.0122 0.00776,0.008 0.00776,0.0199 0,0.009 -0.00545,0.0159 -0.00524,0.007 -0.015306,0.0119 -0.00985,0.004 -0.023064,0.004 -0.013,0 -0.023064,-0.004 -0.00985,-0.004 -0.015306,-0.0101 -0.00545,-0.006 -0.00545,-0.0111 0,-0.002 0.00168,-0.004 0.00168,-0.002 0.00398,-0.002 h 0.00755 q 0.00189,0 0.00335,4.2e-4 0.00147,4.2e-4 0.00273,0.002 0.00692,0.01 0.024532,0.01 0.00985,0 0.017193,-0.004 0.00755,-0.004 0.00755,-0.0103 0,-0.005 -0.00377,-0.008 -0.00356,-0.003 -0.010484,-0.005 -0.00692,-0.002 -0.021596,-0.005 z" />
      <path
         id="path2491"
         style="stroke-width:0.00524186"
         d="m 2.9237789,296.01665 q 0,0.002 -0.00168,0.004 -0.00168,0.002 -0.00398,0.002 h -0.00776 q -0.00231,0 -0.00398,-0.002 -0.00168,-0.002 -0.00168,-0.004 v -0.13755 q 0,-0.002 0.00168,-0.004 0.00168,-0.002 0.00398,-0.002 h 0.00776 q 0.00231,0 0.00398,0.002 0.00168,0.002 0.00168,0.004 v 0.0694 l 0.040886,-0.0317 q 0.00231,-0.002 0.00398,-0.003 0.00168,-0.001 0.00419,-0.001 h 0.010484 q 0.0021,0 0.00356,0.001 0.00147,0.001 0.00147,0.004 0,0.002 -0.00231,0.004 l -0.050531,0.0394 0.055773,0.0514 q 0.0021,0.002 0.0021,0.004 0,0.002 -0.00147,0.004 -0.00147,0.001 -0.00356,0.001 h -0.00985 q -0.0044,0 -0.0086,-0.004 l -0.046128,-0.0426 z" />
      <path
         id="path2493"
         style="stroke-width:0.00524186"
         d="m 3.0258896,296.01686 q 0,0.002 0.00189,0.004 0.0021,0.001 0.0044,0.001 h 0.00776 q 0.00231,0 0.00398,-0.002 0.00168,-0.002 0.00168,-0.004 l -6.29e-4,-0.0853 h 0.022016 q 0.00231,0 0.00398,-0.002 0.00168,-0.002 0.00168,-0.004 v -0.007 q 0,-0.002 -0.00168,-0.004 -0.00168,-0.002 -0.00398,-0.002 h -0.022016 v -0.0342 q 0,-0.002 -0.00168,-0.004 -0.00168,-0.002 -0.00398,-0.002 h -0.00776 q -0.00231,0 -0.00398,0.002 -0.00168,0.002 -0.00168,0.004 v 0.0342 H 3.005761 q -0.00231,0 -0.00398,0.002 -0.00168,0.002 -0.00168,0.004 v 0.007 q 0,0.002 0.00168,0.004 0.00168,0.002 0.00398,0.002 h 0.020129 z" />
      <path
         id="path2495"
         style="stroke-width:0.00524186"
         d="m 3.1900635,295.95794 q 4.193e-4,0.005 4.193e-4,0.0101 0,0.005 -4.193e-4,0.01 -0.00189,0.0214 -0.014887,0.0342 -0.01279,0.0126 -0.034806,0.0126 -0.022016,0 -0.035015,-0.0126 -0.01279,-0.0128 -0.014677,-0.0342 -2.097e-4,-0.002 -2.097e-4,-0.01 0,-0.008 2.097e-4,-0.0101 0.00168,-0.0214 0.014677,-0.034 0.013,-0.0128 0.035015,-0.0128 0.022016,0 0.035015,0.0128 0.013,0.0126 0.014677,0.034 z m -0.01908,0.001 q -0.00126,-0.0134 -0.00902,-0.0216 -0.00755,-0.008 -0.021596,-0.008 -0.014048,0 -0.021806,0.008 -0.00755,0.008 -0.00881,0.0216 -2.097e-4,0.003 -2.097e-4,0.009 0,0.006 2.097e-4,0.009 0.00126,0.0134 0.00881,0.0216 0.00776,0.008 0.021806,0.008 0.014048,0 0.021596,-0.008 0.00776,-0.008 0.00902,-0.0216 4.194e-4,-0.005 4.194e-4,-0.009 0,-0.004 -4.194e-4,-0.009 z" />
      <path
         id="path2497"
         style="stroke-width:0.00524186"
         d="m 3.2357721,296.05649 q 0,0.002 -0.00168,0.004 -0.00168,0.002 -0.00398,0.002 h -0.00776 q -0.00231,0 -0.00398,-0.002 -0.00168,-0.002 -0.00168,-0.004 v -0.13755 q 0,-0.002 0.00168,-0.004 0.00168,-0.002 0.00398,-0.002 h 0.00776 q 0.00231,0 0.00398,0.002 0.00168,0.002 0.00168,0.004 v 0.006 q 0.010693,-0.0143 0.032499,-0.0143 0.013,0 0.023483,0.006 0.010693,0.006 0.016983,0.0174 0.0065,0.0113 0.00713,0.0264 2.097e-4,0.002 2.097e-4,0.007 0,0.005 -2.097e-4,0.007 -6.29e-4,0.0151 -0.00713,0.0264 -0.00629,0.0111 -0.016774,0.0172 -0.010484,0.006 -0.023693,0.006 -0.011742,0 -0.019919,-0.004 -0.00797,-0.004 -0.01258,-0.0103 z m 0,-0.0811 q 6.291e-4,0.0147 0.00881,0.0229 0.00818,0.008 0.021596,0.008 0.013629,0 0.021596,-0.009 0.00818,-0.009 0.00902,-0.0239 2.097e-4,-0.002 2.097e-4,-0.006 0,-0.004 -2.097e-4,-0.006 -8.387e-4,-0.0151 -0.00902,-0.0239 -0.00797,-0.009 -0.021596,-0.009 -0.013,0 -0.021387,0.008 -0.00839,0.008 -0.00902,0.0214 l -2.096e-4,0.008 z" />
      <path
         id="path2499"
         style="stroke-width:0.00524186"
         d="m 3.4154617,295.95752 h 0.06416 q 0.00231,0 0.00398,-0.002 0.00168,-0.002 0.00168,-0.004 v -0.008 q 0,-0.002 -0.00168,-0.004 -0.00168,-0.002 -0.00398,-0.002 h -0.06416 v -0.0442 h 0.068773 q 0.00231,0 0.00398,-0.002 0.00168,-0.002 0.00168,-0.004 v -0.008 q 0,-0.002 -0.00168,-0.004 -0.00168,-0.002 -0.00398,-0.002 h -0.083031 q -0.00231,0 -0.00398,0.002 -0.00168,0.002 -0.00168,0.004 v 0.13545 q 0,0.002 0.00168,0.004 0.00168,0.002 0.00398,0.002 h 0.084708 q 0.00231,0 0.00398,-0.002 0.00168,-0.002 0.00168,-0.004 v -0.008 q 0,-0.002 -0.00168,-0.004 -0.00168,-0.002 -0.00398,-0.002 h -0.07045 z" />
      <path
         id="path2501"
         style="stroke-width:0.00524186"
         d="m 3.6142315,296.01665 q 0,0.002 -0.00168,0.004 -0.00168,0.002 -0.00398,0.002 h -0.00776 q -0.00231,0 -0.00398,-0.002 -0.00168,-0.002 -0.00168,-0.004 v -0.0554 q 0,-0.0157 -0.00776,-0.0239 -0.00776,-0.008 -0.021596,-0.008 -0.013629,0 -0.021596,0.008 -0.00776,0.008 -0.00776,0.0239 v 0.0554 q 0,0.002 -0.00168,0.004 -0.00168,0.002 -0.00398,0.002 h -0.00776 q -0.00231,0 -0.00398,-0.002 -0.00168,-0.002 -0.00168,-0.004 v -0.0977 q 0,-0.002 0.00168,-0.004 0.00168,-0.002 0.00398,-0.002 h 0.00776 q 0.00231,0 0.00398,0.002 0.00168,0.002 0.00168,0.004 v 0.006 q 0.00461,-0.006 0.01258,-0.0101 0.00818,-0.004 0.019919,-0.004 0.013209,0 0.023483,0.006 0.010274,0.006 0.015935,0.0164 0.00587,0.0105 0.00587,0.0249 z" />
      <path
         id="path2503"
         style="stroke-width:0.00524186"
         d="m 3.6943262,296.01707 q -0.0021,0.005 -0.00629,0.005 h -0.00776 q -0.0044,0 -0.0065,-0.005 l -0.041725,-0.0973 q -2.096e-4,-6.3e-4 -2.096e-4,-0.001 0,-0.002 0.00147,-0.004 0.00147,-0.001 0.00356,-0.001 h 0.00776 q 0.00503,0 0.00692,0.005 l 0.032499,0.0761 0.032499,-0.0761 q 0.00189,-0.005 0.00608,-0.005 h 0.0086 q 0.0021,0 0.00356,0.001 0.00147,0.001 0.00147,0.004 0,8.4e-4 -2.097e-4,0.001 z" />
      <path
         id="path2505"
         style="stroke-width:0.00524186"
         d="m 3.779663,295.89294 q 0,0.002 -0.00168,0.004 -0.00168,0.002 -0.00398,0.002 h -0.011951 q -0.00231,0 -0.00398,-0.002 -0.00168,-0.002 -0.00168,-0.004 v -0.012 q 0,-0.002 0.00168,-0.004 0.00168,-0.002 0.00398,-0.002 h 0.011951 q 0.00231,0 0.00398,0.002 0.00168,0.002 0.00168,0.004 z m -0.0021,0.12371 q 0,0.002 -0.00168,0.004 -0.00168,0.002 -0.00398,0.002 h -0.00776 q -0.00231,0 -0.00398,-0.002 -0.00168,-0.002 -0.00168,-0.004 v -0.0977 q 0,-0.002 0.00168,-0.004 0.00168,-0.002 0.00398,-0.002 h 0.00776 q 0.00231,0 0.00398,0.002 0.00168,0.002 0.00168,0.004 z" />
      <path
         id="path2507"
         style="stroke-width:0.00524186"
         d="m 3.8643707,295.91328 q 0.00231,0 0.00398,0.002 0.00168,0.002 0.00168,0.004 v 0.007 q 0,0.002 -0.00168,0.004 -0.00168,0.002 -0.00398,0.002 h -0.012161 q -0.011742,0 -0.018032,0.006 -0.00608,0.006 -0.00608,0.0178 v 0.0612 q 0,0.002 -0.00168,0.004 -0.00168,0.002 -0.00398,0.002 h -0.00776 q -0.00231,0 -0.00398,-0.002 -0.00168,-0.002 -0.00168,-0.004 v -0.0977 q 0,-0.002 0.00168,-0.004 0.00168,-0.002 0.00398,-0.002 h 0.00776 q 0.00231,0 0.00398,0.002 0.00168,0.002 0.00168,0.004 v 0.006 q 0.00419,-0.006 0.010064,-0.009 0.00587,-0.003 0.015306,-0.003 z" />
      <path
         id="path2509"
         style="stroke-width:0.00524186"
         d="m 3.9803193,295.95794 q 4.193e-4,0.005 4.193e-4,0.0101 0,0.005 -4.193e-4,0.01 -0.00189,0.0214 -0.014887,0.0342 -0.01279,0.0126 -0.034806,0.0126 -0.022016,0 -0.035015,-0.0126 -0.01279,-0.0128 -0.014677,-0.0342 -2.096e-4,-0.002 -2.096e-4,-0.01 0,-0.008 2.096e-4,-0.0101 0.00168,-0.0214 0.014677,-0.034 0.013,-0.0128 0.035015,-0.0128 0.022016,0 0.035015,0.0128 0.013,0.0126 0.014677,0.034 z m -0.01908,0.001 q -0.00126,-0.0134 -0.00902,-0.0216 -0.00755,-0.008 -0.021596,-0.008 -0.014048,0 -0.021806,0.008 -0.00755,0.008 -0.00881,0.0216 -2.097e-4,0.003 -2.097e-4,0.009 0,0.006 2.097e-4,0.009 0.00126,0.0134 0.00881,0.0216 0.00776,0.008 0.021806,0.008 0.014048,0 0.021596,-0.008 0.00776,-0.008 0.00902,-0.0216 4.194e-4,-0.005 4.194e-4,-0.009 0,-0.004 -4.194e-4,-0.009 z" />
      <path
         id="path2511"
         style="stroke-width:0.00524186"
         d="m 4.1038165,296.01665 q 0,0.002 -0.00168,0.004 -0.00168,0.002 -0.00398,0.002 h -0.00776 q -0.00231,0 -0.00398,-0.002 -0.00168,-0.002 -0.00168,-0.004 v -0.0554 q 0,-0.0157 -0.00776,-0.0239 -0.00776,-0.008 -0.021596,-0.008 -0.013629,0 -0.021596,0.008 -0.00776,0.008 -0.00776,0.0239 v 0.0554 q 0,0.002 -0.00168,0.004 -0.00168,0.002 -0.00398,0.002 h -0.00776 q -0.00231,0 -0.00398,-0.002 -0.00168,-0.002 -0.00168,-0.004 v -0.0977 q 0,-0.002 0.00168,-0.004 0.00168,-0.002 0.00398,-0.002 h 0.00776 q 0.00231,0 0.00398,0.002 0.00168,0.002 0.00168,0.004 v 0.006 q 0.00461,-0.006 0.01258,-0.0101 0.00818,-0.004 0.019919,-0.004 0.013209,0 0.023483,0.006 0.010274,0.006 0.015935,0.0164 0.00587,0.0105 0.00587,0.0249 z" />
      <path
         id="path2513"
         style="stroke-width:0.00524186"
         d="m 4.153299,295.92544 q 0.00503,-0.006 0.011322,-0.0103 0.00629,-0.004 0.016774,-0.004 0.024532,0 0.034386,0.0182 0.00608,-0.009 0.013838,-0.0134 0.00776,-0.005 0.020338,-0.005 0.020548,0 0.030403,0.0124 0.010064,0.0124 0.010064,0.035 v 0.0581 q 0,0.002 -0.00168,0.004 -0.00168,0.002 -0.00398,0.002 h -0.00776 q -0.00231,0 -0.00398,-0.002 -0.00168,-0.002 -0.00168,-0.004 v -0.056 q 0,-0.0315 -0.024741,-0.0315 -0.011322,0 -0.018032,0.008 -0.00671,0.008 -0.00671,0.0224 v 0.0575 q 0,0.002 -0.00168,0.004 -0.00168,0.002 -0.00398,0.002 h -0.00776 q -0.00231,0 -0.00398,-0.002 -0.00168,-0.002 -0.00168,-0.004 v -0.056 q 0,-0.0315 -0.024741,-0.0315 -0.011322,0 -0.018032,0.008 -0.00671,0.008 -0.00671,0.0224 v 0.0575 q 0,0.002 -0.00168,0.004 -0.00168,0.002 -0.00398,0.002 H 4.13988 q -0.00231,0 -0.00398,-0.002 -0.00168,-0.002 -0.00168,-0.004 v -0.0977 q 0,-0.002 0.00168,-0.004 0.00168,-0.002 0.00398,-0.002 h 0.00776 q 0.00231,0 0.00398,0.002 0.00168,0.002 0.00168,0.004 z" />
      <path
         id="path2515"
         style="stroke-width:0.00524186"
         d="m 4.3638107,295.91118 q 0.022435,0 0.035435,0.0143 0.013,0.0143 0.013,0.0388 v 0.006 q 0,0.002 -0.00168,0.004 -0.00168,0.002 -0.00398,0.002 h -0.072128 v 0.001 q 4.194e-4,0.0138 0.00839,0.0218 0.00818,0.008 0.020967,0.008 0.010484,0 0.016145,-0.003 0.00587,-0.003 0.010484,-0.008 0.00168,-0.002 0.00294,-0.002 0.00147,-6.3e-4 0.00377,-6.3e-4 h 0.00629 q 0.00252,0 0.00419,0.002 0.00168,0.002 0.00147,0.004 -8.387e-4,0.006 -0.00629,0.0117 -0.00524,0.006 -0.015306,0.0101 -0.00985,0.004 -0.023693,0.004 -0.013419,0 -0.023903,-0.006 -0.010484,-0.006 -0.016774,-0.0172 -0.00608,-0.0109 -0.00734,-0.0245 -4.194e-4,-0.006 -4.194e-4,-0.01 0,-0.003 4.194e-4,-0.01 0.00126,-0.013 0.00734,-0.0235 0.00629,-0.0105 0.016564,-0.0166 0.010484,-0.006 0.024112,-0.006 z m 0.029564,0.0468 v -6.3e-4 q 0,-0.0128 -0.00818,-0.0203 -0.00797,-0.008 -0.021387,-0.008 -0.012161,0 -0.020758,0.008 -0.00839,0.008 -0.0086,0.0203 v 6.3e-4 z" />
      <path
         id="path2517"
         style="stroke-width:0.00524186"
         d="m 4.5344843,296.01665 q 0,0.002 -0.00168,0.004 -0.00168,0.002 -0.00398,0.002 h -0.00776 q -0.00231,0 -0.00398,-0.002 -0.00168,-0.002 -0.00168,-0.004 v -0.0554 q 0,-0.0157 -0.00776,-0.0239 -0.00776,-0.008 -0.021596,-0.008 -0.013629,0 -0.021596,0.008 -0.00776,0.008 -0.00776,0.0239 v 0.0554 q 0,0.002 -0.00168,0.004 -0.00168,0.002 -0.00398,0.002 h -0.00776 q -0.00231,0 -0.00398,-0.002 -0.00168,-0.002 -0.00168,-0.004 v -0.0977 q 0,-0.002 0.00168,-0.004 0.00168,-0.002 0.00398,-0.002 h 0.00776 q 0.00231,0 0.00398,0.002 0.00168,0.002 0.00168,0.004 v 0.006 q 0.00461,-0.006 0.01258,-0.0101 0.00818,-0.004 0.019919,-0.004 0.013209,0 0.023483,0.006 0.010274,0.006 0.015935,0.0164 0.00587,0.0105 0.00587,0.0249 z" />
      <path
         id="path2519"
         style="stroke-width:0.00524186"
         d="m 4.577257,296.01686 q 0,0.002 0.00189,0.004 0.0021,0.001 0.0044,0.001 h 0.00776 q 0.00231,0 0.00398,-0.002 0.00168,-0.002 0.00168,-0.004 l -6.29e-4,-0.0853 h 0.022016 q 0.00231,0 0.00398,-0.002 0.00168,-0.002 0.00168,-0.004 v -0.007 q 0,-0.002 -0.00168,-0.004 -0.00168,-0.002 -0.00398,-0.002 h -0.022016 v -0.0342 q 0,-0.002 -0.00168,-0.004 -0.00168,-0.002 -0.00398,-0.002 h -0.00776 q -0.00231,0 -0.00398,0.002 -0.00168,0.002 -0.00168,0.004 v 0.0342 h -0.020129 q -0.00231,0 -0.00398,0.002 -0.00168,0.002 -0.00168,0.004 v 0.007 q 0,0.002 0.00168,0.004 0.00168,0.002 0.00398,0.002 h 0.020129 z" />
    </g>
  </g>
</svg>
